<svg xmlns="http://www.w3.org/2000/svg" viewBox="0 0 125 125"><defs><style>.cls-1{fill:#231f20;}.cls-2{fill:#d92026;}</style></defs><g id="Layer_2" data-name="Layer 2"><g id="Layer_1-2" data-name="Layer 1"><g id="Layer_2-2" data-name="Layer 2"><g id="Layer_2-2-2" data-name="Layer 2-2"><path class="cls-1" d="M62.5,125A62.5,62.5,0,1,1,125,62.5,62.57,62.57,0,0,1,62.5,125Zm0-118.17A55.67,55.67,0,1,0,118.17,62.5,55.73,55.73,0,0,0,62.5,6.83Z"/><path class="cls-1" d="M62.5,99.43A36.12,36.12,0,1,1,98.6,63.3h0A36.16,36.16,0,0,1,62.5,99.43Zm0-67.28A31.17,31.17,0,1,0,93.67,63.31,31.17,31.17,0,0,0,62.5,32.15Z"/><path class="cls-2" d="M82.26,63.31A19.76,19.76,0,1,1,62.5,43.55,19.76,19.76,0,0,1,82.26,63.31"/><path class="cls-1" d="M15.72,46.84a2.68,2.68,0,0,1,1.14-.91,2,2,0,0,1,1.31,0,2,2,0,0,1,1.08.78A2.18,2.18,0,0,1,19.63,48a2.26,2.26,0,0,1,1.17-1.09,2.35,2.35,0,0,1,1.61,0,2.27,2.27,0,0,1,1.18.82,2.73,2.73,0,0,1,.49,1.44,5.33,5.33,0,0,1-.26,1.9l-1.36,4.34-8.81-2.7,1.29-4.17a5.21,5.21,0,0,1,.8-1.64m2.65,2a.84.84,0,0,0-.57-.5.79.79,0,0,0-.7.09,1.15,1.15,0,0,0-.43.69l-.54,1.76,1.71.53.53-1.77a1.16,1.16,0,0,0,0-.82Zm3.57.87a.82.82,0,0,0-.6-.57.81.81,0,0,0-.76.15,1.62,1.62,0,0,0-.52.89L19.53,52l1.85.56.54-1.76a1.72,1.72,0,0,0,0-1Z"/><path class="cls-1" d="M24.48,43.26a1.73,1.73,0,0,0,1.1-.86,1.61,1.61,0,0,0,.18-1.35,2,2,0,0,0-1-1.12l-4.7-2.7,1.2-2.09,4.7,2.7a4.29,4.29,0,0,1,1.57,1.48,3.43,3.43,0,0,1,.48,2,4.6,4.6,0,0,1-.67,2.16,4.9,4.9,0,0,1-1.52,1.68,3.55,3.55,0,0,1-1.95.59,4.15,4.15,0,0,1-2.08-.6l-4.7-2.69,1.2-2.09L23,43a1.89,1.89,0,0,0,1.47.25"/><polyline class="cls-1" points="23.17 32.73 24.77 30.92 30.15 35.66 32.73 32.73 34.28 34.08 30.1 38.82 23.17 32.73"/><polyline class="cls-1" points="29.06 26.43 30.94 24.93 35.42 30.53 38.48 28.08 39.76 29.68 34.83 33.63 29.06 26.43"/><path class="cls-1" d="M41.19,20.75a4.82,4.82,0,0,0-1.37.42,1.29,1.29,0,0,0-.54.47.54.54,0,0,0,0,.55.69.69,0,0,0,.44.34,1.73,1.73,0,0,0,.64,0c.23,0,.57-.09,1-.18A13.3,13.3,0,0,1,43,22.13a2.7,2.7,0,0,1,1.34.25,2.35,2.35,0,0,1,1.1,1.1,2.54,2.54,0,0,1,.31,1.62,2.93,2.93,0,0,1-.72,1.5,5.41,5.41,0,0,1-1.51,1.18,7.17,7.17,0,0,1-2.21.72,6.48,6.48,0,0,1-2.24-.06L39,26.34a5.7,5.7,0,0,0,1.93.12A4.42,4.42,0,0,0,42.65,26a1.66,1.66,0,0,0,.66-.57.65.65,0,0,0,0-.66.71.71,0,0,0-.45-.36,1.68,1.68,0,0,0-.67,0,10.29,10.29,0,0,0-1,.2,14.58,14.58,0,0,1-1.63.27,2.85,2.85,0,0,1-1.32-.22,2.27,2.27,0,0,1-1.06-1.08A2.49,2.49,0,0,1,36.86,22a3,3,0,0,1,.67-1.48,5.12,5.12,0,0,1,1.53-1.21,7.25,7.25,0,0,1,3.76-.82l.11,2.13a7.58,7.58,0,0,0-1.72.11"/><polyline class="cls-1" points="44.88 16.78 51.85 14.7 52.4 16.54 47.74 17.93 48.23 19.58 52.44 18.33 52.99 20.16 48.78 21.43 49.28 23.09 54.07 21.66 54.62 23.51 47.52 25.62 44.88 16.78"/><polyline class="cls-1" points="63.03 13.49 60.21 20.01 60.45 22.95 58.05 23.14 57.82 20.27 53.92 14.22 56.32 14.03 58.82 17.8 60.63 13.68 63.03 13.49"/><polyline class="cls-1" points="65.33 13.65 72.55 14.58 72.31 16.49 67.48 15.86 67.26 17.57 71.62 18.14 71.37 20.03 67.01 19.48 66.79 21.2 71.75 21.84 71.5 23.75 64.15 22.8 65.33 13.65"/><polyline class="cls-1" points="79.11 16.25 81.47 17.37 81.58 23.39 86.29 19.65 88.66 20.77 84.71 29.11 82.79 28.2 85.27 22.91 81.04 26.35 79.63 25.69 79.6 20.23 77.1 25.51 75.16 24.59 79.11 16.25"/><polyline class="cls-1" points="91.53 22.85 97.16 27.48 95.93 28.96 92.17 25.86 91.08 27.2 94.47 29.99 93.26 31.46 89.86 28.68 88.75 30.02 92.61 33.2 91.39 34.68 85.67 29.97 91.53 22.85"/><path class="cls-1" d="M103,35.24a4.26,4.26,0,0,1-.23,2.37,5,5,0,0,1-3.79,2.94,4.21,4.21,0,0,1-2.37-.38,5.68,5.68,0,0,1-2.06-1.71l-2.38-3.07,7.28-5.67,2.44,3.14A5.55,5.55,0,0,1,103,35.24m-5.81,2.91a2.26,2.26,0,0,0,1.26.1,3.06,3.06,0,0,0,1.27-.61,3,3,0,0,0,.91-1.11,2.38,2.38,0,0,0-.33-2.51l-.93-1.19-4.2,3.26,1,1.29A2.35,2.35,0,0,0,97.14,38.15Z"/><polyline class="cls-1" points="105.89 38.89 107.03 41.01 98.9 45.38 97.76 43.26 105.89 38.89"/><path class="cls-1" d="M101.88,53l1.35-1.14-1.29-3.8L100.19,48l-.8-2.34,10,.78.8,2.34-7.49,6.64L101.88,53m2-4.78.83,2.41,2.7-2.25Z"/><polyline class="cls-2" points="17.39 63.11 12.84 67.08 12.75 64.25 17.3 60.19 22.07 63.96 22.16 66.79 17.39 63.11"/><polyline class="cls-2" points="107.61 63.83 112.16 59.87 112.25 62.7 107.7 66.75 102.93 62.98 102.84 60.15 107.61 63.83"/><path class="cls-1" d="M109.66,80.52a2.71,2.71,0,0,1-1.14.9,1.9,1.9,0,0,1-1.31,0,2,2,0,0,1-1.08-.78,2.18,2.18,0,0,1-.36-1.33A2.26,2.26,0,0,1,103,80.47a2.16,2.16,0,0,1-1.17-.82,2.65,2.65,0,0,1-.49-1.44,5.33,5.33,0,0,1,.26-1.9L102.92,72l8.82,2.72-1.29,4.17a5.18,5.18,0,0,1-.81,1.65m-6.23-2.91a.84.84,0,0,0,.6.57.78.78,0,0,0,.76-.15,1.71,1.71,0,0,0,.53-.88l.54-1.76L104,74.8l-.54,1.76a1.71,1.71,0,0,0,0,1Zm3.57.88a.84.84,0,0,0,.56.48.79.79,0,0,0,.7-.09,1.16,1.16,0,0,0,.45-.69l.54-1.76-1.71-.53L107,77.64a1.16,1.16,0,0,0,0,.86Z"/><path class="cls-1" d="M100.88,84.08a1.75,1.75,0,0,0-1.1.87,1.65,1.65,0,0,0-.18,1.35,2,2,0,0,0,1,1.12l4.7,2.7-1.21,2.09L99.36,89.5A4.18,4.18,0,0,1,97.8,88a3.52,3.52,0,0,1-.49-2,5.3,5.3,0,0,1,2.2-3.84,3.53,3.53,0,0,1,1.94-.58,4.15,4.15,0,0,1,2.08.6l4.7,2.71L107,87l-4.7-2.71a1.88,1.88,0,0,0-1.46-.25"/><polyline class="cls-1" points="102.18 94.61 100.58 96.42 95.2 91.66 92.62 94.59 91.08 93.23 95.26 88.5 102.18 94.61"/><polyline class="cls-1" points="96.28 100.89 94.4 102.39 89.92 96.78 86.87 99.22 85.58 97.62 90.52 93.67 96.28 100.89"/><path class="cls-1" d="M84.12,106.57a4.93,4.93,0,0,0,1.37-.41,1.41,1.41,0,0,0,.55-.48.57.57,0,0,0,0-.54.67.67,0,0,0-.44-.35,1.73,1.73,0,0,0-.64,0l-1,.17a13.62,13.62,0,0,1-1.66.26,2.83,2.83,0,0,1-1.35-.25,2.26,2.26,0,0,1-1.09-1.11,2.54,2.54,0,0,1-.31-1.62,2.93,2.93,0,0,1,.72-1.49,5.31,5.31,0,0,1,1.52-1.18,6.84,6.84,0,0,1,2.2-.71,6.36,6.36,0,0,1,2.26,0l.05,2.1a6,6,0,0,0-1.93-.11,4.32,4.32,0,0,0-1.68.44,1.52,1.52,0,0,0-.66.57.65.65,0,0,0,0,.66.71.71,0,0,0,.45.36,1.68,1.68,0,0,0,.67,0c.25,0,.58-.1,1-.2a13,13,0,0,1,1.64-.26,2.85,2.85,0,0,1,1.32.22,2.29,2.29,0,0,1,1.07,1.08,2.58,2.58,0,0,1,.3,1.54,2.91,2.91,0,0,1-.67,1.48A5,5,0,0,1,86.24,108a7,7,0,0,1-1.89.68,6.51,6.51,0,0,1-1.87.13l-.1-2.12a8.34,8.34,0,0,0,1.73-.11"/><polyline class="cls-1" points="80.44 110.51 73.46 112.58 72.91 110.74 77.58 109.35 77.09 107.7 72.88 108.95 72.34 107.12 76.55 105.86 76.05 104.19 71.26 105.61 70.72 103.77 77.82 101.67 80.44 110.51"/><polyline class="cls-1" points="62.27 113.77 65.1 107.25 64.86 104.31 67.27 104.12 67.49 106.99 71.37 113.05 68.97 113.24 66.49 109.47 64.67 113.58 62.27 113.77"/><polyline class="cls-1" points="59.97 113.6 52.75 112.66 53 110.75 57.83 111.39 58.05 109.67 53.7 109.1 53.94 107.21 58.31 107.77 58.53 106.05 53.57 105.39 53.82 103.49 61.17 104.45 59.97 113.6"/><polyline class="cls-1" points="46.2 110.97 43.83 109.84 43.74 103.82 39.02 107.55 36.65 106.42 40.62 98.09 42.55 99.01 40.05 104.29 44.29 100.86 45.7 101.53 45.72 106.99 48.23 101.72 50.17 102.64 46.2 110.97"/><polyline class="cls-1" points="33.78 104.34 28.17 99.7 29.4 98.22 33.15 101.33 34.25 100 30.87 97.19 32.08 95.73 35.48 98.52 36.59 97.18 32.73 93.99 33.96 92.51 39.67 97.23 33.78 104.34"/><path class="cls-1" d="M22.4,91.93a4.27,4.27,0,0,1,.23-2.37,5,5,0,0,1,3.79-2.93,4.15,4.15,0,0,1,2.4.4,5.75,5.75,0,0,1,2.05,1.71l2.37,3.08-7.3,5.65-2.43-3.15a5.43,5.43,0,0,1-1.11-2.38M28.21,89a2.31,2.31,0,0,0-1.25-.1,3,3,0,0,0-1.28.61,2.91,2.91,0,0,0-.91,1.09,2.35,2.35,0,0,0-.2,1.28,2.47,2.47,0,0,0,.52,1.22l.93,1.2,4.21-3.25-1-1.29a2.29,2.29,0,0,0-1-.77Z"/><polyline class="cls-1" points="19.47 88.27 18.33 86.15 26.47 81.79 27.6 83.92 19.47 88.27"/><path class="cls-1" d="M23.51,74.16l-1.34,1.12,1.28,3.79,1.75.09L26,81.5l-10-.79-.81-2.36,7.51-6.62.83,2.43m-2,4.81-.82-2.42L17.93,78.8Z"/></g></g></g></g></svg>