<?xml version="1.0" encoding="UTF-8"?>
<!-- Generator: Adobe Illustrator 27.4.0, SVG Export Plug-In . SVG Version: 6.00 Build 0)  -->
<svg xmlns="http://www.w3.org/2000/svg" xmlns:xlink="http://www.w3.org/1999/xlink" version="1.1" id="Layer_1" x="0px" y="0px" viewBox="0 0 896 184.6" style="enable-background:new 0 0 896 184.6;" xml:space="preserve">
<style type="text/css">
	.st0{fill:#231F20;}
	.st1{fill:#414042;}
	.st2{fill:#BE1E2D;}
</style>
<g id="Layer_2_00000000939029480229549470000000379556267664579975_">
</g>
<g id="Layer_1_00000158736646896928398880000014900924908130877838_">
	<g>
		<path class="st0" d="M90.6,125c-0.7,4.3-2.1,8-4.2,11.2c-2,3.2-4.5,5.8-7.5,7.9c-2.9,2.1-6.3,3.7-9.9,4.7    c-3.7,1.1-7.5,1.6-11.5,1.6c-5.9,0-11.2-1-16-3.1s-8.8-5-12.2-8.7s-6-8.1-7.8-13.1c-1.8-5.1-2.7-10.5-2.7-16.3    c0-6.4,1-12.3,3.1-17.6c2.1-5.3,4.9-9.9,8.4-13.8s7.6-6.9,12.3-9s9.7-3.2,15-3.2c6.4,0,12.4,1.9,18,5.7c2.9-3,5.9-4.7,8.9-5.2    c0.2,0.2,0.6,1.2,1.1,2.8c0.5,1.6,1,3.7,1.4,6.2c0.5,2.5,0.8,5.5,1.2,8.8c0.3,3.3,0.5,6.7,0.5,10.4h-4.2    c-1.9-7.9-5.2-13.8-9.9-17.8c-4.7-4-10.2-6-16.5-6c-4.6,0-8.4,1-11.7,2.9c-3.2,1.9-5.9,4.5-8,7.6c-2.1,3.2-3.6,6.8-4.5,10.8    c-1,4-1.4,8.1-1.4,12.3c0,5.8,0.5,11.2,1.6,16.2c1,5,2.7,9.3,4.9,12.9c2.2,3.7,5.1,6.5,8.7,8.6c3.6,2.1,7.8,3.1,12.8,3.1    c3.1,0,6-0.3,8.5-1s4.8-1.8,7-3.4c2.1-1.6,4.1-3.8,5.8-6.5c1.8-2.8,3.5-6.2,5.2-10.3L90.6,125z"/>
		<path class="st0" d="M148.9,143.4c-1.2,4.4-4.6,6.5-9.9,6.5c-4.7,0-7.7-2.7-8.9-8c-6,5.3-12.3,8-19,8c-4.4,0-7.6-0.9-9.7-2.8    c-2.1-1.9-3.1-4.8-3.1-8.8c0-10.1,10.3-17,30.8-20.7v-4.8c0-8.1-3.2-12.1-9.5-12.1c-2.8,0-5.1,0.5-7.1,1.4s-3,2.6-3,5.2    c0.5,0.3,0.9,0.8,1.1,1.5s0.4,1.4,0.4,2.2c0,3.1-1.9,4.7-5.7,4.7c-1.4,0-2.6-0.5-3.6-1.4s-1.5-2.3-1.5-4.2s0.6-3.7,1.7-5.4    c1.2-1.7,2.7-3.2,4.5-4.5c1.9-1.3,4-2.3,6.5-3.1c2.5-0.8,5-1.2,7.5-1.2c6.9,0,11.8,1.3,14.7,3.8s4.4,6.8,4.4,12.7v26.8    c0,3,1.4,4.6,4.2,4.6c1.3,0,2.6-0.5,3.9-1.4L148.9,143.4z M129.5,121.8c-2.6,0.2-5.1,0.7-7.6,1.3c-2.5,0.6-4.7,1.5-6.7,2.6    s-3.5,2.5-4.8,4.3c-1.2,1.7-1.8,3.9-1.8,6.4c0,5.3,2.6,8,7.9,8c2.3,0,4.3-0.3,5.8-1s2.8-1.6,3.7-2.8c1-1.1,1.7-2.4,2.3-3.8    c0.5-1.4,0.9-2.8,1.2-4.2V121.8z"/>
		<path class="st0" d="M153.2,148.6v-3.7c5.6,0,8.4-1.9,8.4-5.7V76.7c0-4-3.2-6-9.6-6v-3.3l20-3.7v76.1c0,3.5,3.1,5.2,9.4,5.2v3.7    L153.2,148.6L153.2,148.6z"/>
		<path class="st0" d="M189.8,148.6v-3.7c5.6,0,8.4-1.9,8.4-5.7V76.7c0-4-3.2-6-9.6-6v-3.3l20-3.7v76.1c0,3.5,3.1,5.2,9.4,5.2v3.7    L189.8,148.6L189.8,148.6z"/>
		<path class="st0" d="M313.2,148.6v-3.7c7.5,0,11.3-3,11.3-8.9V78c0-4.9-3.9-7.4-11.8-7.4v-3.8h20.8c2.7,0,4.9,0,6.4-0.1    c1.5,0,2.9-0.1,4.1-0.1s2.4-0.1,3.6-0.1s2.8-0.1,4.9-0.1c18.6,0,27.8,8,27.8,23.9c0,3.1-0.6,6-1.7,8.8c-1.1,2.7-2.8,5.1-5.2,7.2    c-2.3,2.1-5.3,3.7-8.8,4.8c-3.6,1.2-7.8,1.7-12.7,1.7c-2.7,0-5.2-0.1-7.8-0.3c-2.5-0.2-5-0.6-7.4-1v24c0,6.2,4.1,9.4,12.3,9.4v3.7    H313.2z M342,70.7c-3.5,0-5.2,2.2-5.2,6.5v29.7c2.1,0.4,4.3,0.7,6.8,1c2.5,0.2,5.3,0.4,8.3,0.4c2.7,0,5.1-0.5,7-1.5    s3.6-2.4,4.8-4.1c1.3-1.7,2.2-3.6,2.8-5.9c0.6-2.2,0.9-4.5,0.9-6.9c0-12.8-7.4-19.2-22.2-19.2H342z"/>
		<path class="st0" d="M403,150.9c-3.9,0-7.5-0.7-10.7-2.2c-3.2-1.4-6-3.4-8.3-5.8c-2.3-2.4-4-5.3-5.3-8.5    c-1.2-3.2-1.9-6.7-1.9-10.3c0-4.3,0.7-8.2,2.1-11.7s3.3-6.5,5.7-8.9c2.4-2.5,5.2-4.4,8.4-5.7c3.2-1.3,6.7-2,10.3-2    c3.7,0,7.2,0.7,10.3,2.2c3.1,1.4,5.9,3.4,8.1,5.8c2.3,2.4,4,5.3,5.3,8.5c1.2,3.2,1.9,6.7,1.9,10.3c0,4.4-0.7,8.3-2.1,11.8    s-3.3,6.5-5.7,8.9c-2.4,2.4-5.2,4.3-8.3,5.6C409.8,150.3,406.5,150.9,403,150.9z M403.5,146.6c3.2,0,5.8-0.7,7.6-2.2    c1.9-1.4,3.3-3.1,4.3-5.1s1.6-4,1.9-6.1s0.4-3.9,0.4-5.3c0-2.7-0.2-5.7-0.5-8.9c-0.3-3.2-1-6.2-2.1-9c-1-2.7-2.5-5.1-4.5-6.9    c-1.9-1.9-4.5-2.8-7.8-2.8s-5.9,0.7-7.8,2.2c-1.9,1.4-3.4,3.1-4.3,5.1c-1,2-1.6,4-1.9,6.1s-0.4,3.9-0.4,5.3c0,2.7,0.2,5.7,0.5,8.9    s1,6.2,2,9c1,2.7,2.5,5.1,4.5,6.9C397.5,145.7,400.2,146.6,403.5,146.6z"/>
		<path class="st0" d="M436,148.6v-3.7c5.4,0,8.1-2.3,8.1-7V112c0-5.9-2.9-8.9-8.6-8.9v-3.3c3.1-0.7,6.3-1.3,9.5-1.9    s6.4-1.3,9.5-1.9v11.8l0.6,0.5c0.2-1.1,0.8-2.3,1.7-3.7c0.9-1.4,1.9-2.7,3.2-4c1.3-1.3,2.7-2.4,4.3-3.3c1.6-0.9,3.2-1.4,4.9-1.4    c6.3,0,9.4,2.8,9.4,8.5c0,4.7-1.9,7-5.7,7c-3.4,0-5.1-1.5-5.1-4.6c0-1.3,0.1-2.3,0.4-3H466c-2.5,0-4.4,0.8-5.9,2.3    c-1.5,1.6-2.6,3.5-3.4,5.7s-1.3,4.5-1.6,7c-0.3,2.4-0.5,4.5-0.6,6.1v13.2c0,4.4,3.2,6.7,9.6,6.7v3.7H436V148.6z"/>
		<path class="st0" d="M516.7,136c-0.5,2.1-1.1,4.1-1.9,5.9c-0.7,1.8-1.7,3.3-3,4.6c-1.2,1.3-2.8,2.3-4.7,3c-1.9,0.7-4.1,1-6.6,1    c-4.1,0-7.3-1-9.6-2.9c-2.4-1.9-3.5-5-3.5-9.3v-35.1h-8.1l0.5-3.7c3.8-0.7,6.9-2.9,9.2-6.5c2.3-3.6,4-7.7,5-12.4l3.9-0.5v18.2h9.8    c1.2,0,2.2-0.1,3.2-0.3c1-0.2,1.8-0.4,2.5-0.6v5.7h-15.5v32.4c0,1,0,2,0.1,2.9s0.3,1.8,0.7,2.7c0.4,0.8,1,1.5,1.8,2s2,0.7,3.5,0.7    c2.4,0,4.6-0.8,6.5-2.5c1.9-1.6,3.1-3.7,3.5-6.3L516.7,136z"/>
		<path class="st0" d="M565.9,136.4c-2.2,4.6-5.1,8.2-8.7,10.7c-3.6,2.5-8,3.8-12.9,3.8c-4.1,0-7.8-0.7-10.9-2.1    c-3.1-1.4-5.8-3.3-7.9-5.7c-2.1-2.4-3.7-5.2-4.8-8.5s-1.6-6.8-1.6-10.5s0.6-7.2,1.7-10.6c1.2-3.4,2.8-6.4,4.9-9    c2.1-2.6,4.7-4.7,7.6-6.3c3-1.6,6.3-2.3,9.9-2.3c2.2,0,4.6,0.3,7,0.8s4.7,1.6,6.9,3.1c2.2,1.6,4,3.8,5.6,6.7    c1.6,2.9,2.6,6.8,3.1,11.5c0,1-0.1,1.9-0.4,2.7h-33.1c-1.6,0-2.4,0.6-2.4,1.8c0,3,0.4,5.8,1.2,8.4c0.8,2.6,2,4.9,3.5,6.9    s3.3,3.5,5.5,4.6s4.6,1.7,7.2,1.7c3.5,0,6.5-1,9-3s4.7-4.3,6.6-6.9L565.9,136.4z M549,117.2c3.4,0,5.1-1.7,5.1-5.2    c-0.2-3.1-1.3-5.9-3.2-8.2c-1.9-2.3-4.6-3.5-8.1-3.5c-1.9,0-3.6,0.4-5.2,1.3c-1.6,0.9-2.9,2-4,3.5c-1.1,1.4-2,3.1-2.5,4.9    c-0.6,1.8-0.9,3.8-0.9,5.7c0,1,0.9,1.5,2.7,1.5C532.9,117.2,549,117.2,549,117.2z"/>
		<path class="st0" d="M573.7,148.6v-3.7c5.4,0,8.1-2.3,8.1-7V112c0-5.9-2.9-8.9-8.6-8.9v-3.3c3.1-0.7,6.3-1.3,9.5-1.9    s6.4-1.3,9.5-1.9v11.8l0.6,0.5c0.2-1.1,0.8-2.3,1.7-3.7c0.9-1.4,1.9-2.7,3.2-4s2.7-2.4,4.3-3.3s3.2-1.4,4.9-1.4    c6.3,0,9.4,2.8,9.4,8.5c0,4.7-1.9,7-5.7,7c-3.4,0-5.1-1.5-5.1-4.6c0-1.3,0.1-2.3,0.4-3h-2.2c-2.5,0-4.4,0.8-5.9,2.3    c-1.5,1.6-2.6,3.5-3.4,5.7c-0.8,2.2-1.3,4.5-1.6,7c-0.3,2.4-0.5,4.5-0.6,6.1v13.2c0,4.4,3.2,6.7,9.6,6.7v3.7h-28.1V148.6z"/>
		<path class="st0" d="M626.8,150.4c-5.6,0-8.4-2.7-8.4-8s2.8-8,8.4-8c5.3,0,8,2.7,8,8C634.7,147.8,632.1,150.4,626.8,150.4z"/>
		<path class="st0" d="M689.6,138.2c-0.8,2.2-2,4.1-3.6,5.7c-1.6,1.6-3.3,2.9-5.3,3.9c-1.9,1-4,1.8-6.2,2.3s-4.2,0.7-6.2,0.7    c-3.6,0-6.9-0.7-9.8-2c-2.9-1.4-5.3-3.2-7.3-5.6c-2-2.4-3.5-5.2-4.5-8.4s-1.6-6.7-1.6-10.4c0-3.9,0.6-7.5,1.7-11    c1.1-3.5,2.8-6.5,5.1-9.1s5.1-4.7,8.6-6.2c3.4-1.5,7.5-2.3,12.1-2.3c2,0,4,0.3,5.9,0.9s3.7,1.4,5.2,2.4s2.8,2.3,3.7,3.8    s1.4,3.1,1.4,4.8c0,1.6-0.7,3.1-2.1,4.3c-1.4,1.2-2.9,1.8-4.6,1.8c-3.4,0-5.1-1.9-5.1-5.6c0-0.2,0.1-0.8,0.2-1.6    c0.1-0.8,0.2-1.6,0.2-2.2c0-1.7-0.8-2.9-2.3-3.6s-3.1-1.1-4.8-1.1c-2.4,0-4.5,0.6-6.2,1.9s-3.1,2.9-4.2,4.9    c-1.1,2-1.9,4.3-2.5,6.7c-0.5,2.5-0.8,4.9-0.8,7.2c0,3.3,0.3,6.4,1,9.2c0.7,2.8,1.7,5.3,3,7.4c1.3,2.1,3,3.8,5.1,4.9    c2.1,1.2,4.6,1.8,7.5,1.8c5.5,0,10-2.5,13.3-7.4L689.6,138.2z"/>
		<path class="st0" d="M720.1,150.9c-3.9,0-7.5-0.7-10.7-2.2c-3.2-1.4-6-3.4-8.3-5.8c-2.3-2.4-4-5.3-5.3-8.5    c-1.2-3.2-1.9-6.7-1.9-10.3c0-4.3,0.7-8.2,2.1-11.7c1.4-3.5,3.3-6.5,5.7-8.9c2.4-2.5,5.2-4.4,8.4-5.7c3.2-1.3,6.7-2,10.3-2    c3.7,0,7.2,0.7,10.3,2.2c3.1,1.4,5.9,3.4,8.1,5.8c2.3,2.4,4,5.3,5.3,8.5c1.2,3.2,1.9,6.7,1.9,10.3c0,4.4-0.7,8.3-2.1,11.8    c-1.4,3.5-3.3,6.5-5.7,8.9s-5.2,4.3-8.3,5.6C726.9,150.3,723.6,150.9,720.1,150.9z M720.6,146.6c3.2,0,5.8-0.7,7.6-2.2    c1.9-1.4,3.3-3.1,4.3-5.1s1.6-4,1.9-6.1c0.3-2.1,0.4-3.9,0.4-5.3c0-2.7-0.2-5.7-0.5-8.9c-0.3-3.2-1-6.2-2.1-9    c-1-2.7-2.5-5.1-4.5-6.9c-1.9-1.9-4.5-2.8-7.8-2.8s-5.9,0.7-7.8,2.2c-1.9,1.4-3.4,3.1-4.3,5.1c-1,2-1.6,4-1.9,6.1    c-0.3,2.1-0.4,3.9-0.4,5.3c0,2.7,0.2,5.7,0.5,8.9s1,6.2,2.1,9c1,2.7,2.5,5.1,4.5,6.9C714.6,145.7,717.3,146.6,720.6,146.6z"/>
		<path class="st0" d="M818.4,148.6v-3.7c5.3,0,8-2.1,8-6.2v-22.4c0-9.1-3.4-13.7-10.3-13.7c-6,0-10.1,3.4-12.3,10.2v24    c0,5.3,2.7,8,8.1,8v3.7h-26.1v-3.7c5.1,0,7.6-2.8,7.6-8.5v-16.9c0-11.3-3.4-16.9-10.3-16.9c-8.3,0-12.4,5-12.4,15v20.6    c0,4.4,2.7,6.7,8.1,6.7v3.7h-25.5v-3.7c4.6,0,7-2.1,7-6.2v-31.4c0-2.5-2.8-3.8-8.4-3.8v-3.2l17.9-4.3c0.3,0.3,0.5,1.2,0.5,2.5v7.4    c1.3-2.5,3.5-4.7,6.5-6.8c3-2.1,6.5-3.1,10.6-3.1c1.5,0,3.1,0.3,4.8,0.9s3.3,1.3,4.7,2.3c1.4,0.9,2.7,2,3.7,3.3    c1,1.2,1.7,2.5,2,3.9c1.6-3.1,4-5.6,7.3-7.5s6.7-2.8,10.3-2.8c5,0,8.9,1.6,11.9,4.7s4.5,7.5,4.5,13.2v24.9c0,4.1,2.7,6.2,8.1,6.2    v3.7h-26.3V148.6z"/>
	</g>
	<path class="st1" d="M157,73.1"/>
	<g>
		<rect x="232.9" y="36.3" class="st2" width="62.3" height="6"/>
		<path class="st0" d="M297.6,44.7c-0.2-1.2-0.5-2.4-0.8-3.6l-0.7-20.8c0-4.8-4-3.3-6.3-4.1c-9-1.5-16.2-2.4-23.2-2.6    c-0.7-0.1-1.4-0.1-2.2-0.1c-0.6,0-1.2,0-1.8,0.1c-7.6,0.1-15.3,0.9-25.2,2.7c-2.3,0.9-4.9-0.5-4.8,4.4c0,0.1-1.1,20.2-1.1,20.2    s0,0,0.1,0.1c-0.2,0.9-0.4,1.8-0.5,2.7c-2.8,0.9-4.8,5.2-4.8,10.5c0,6,2.6,10.7,5.9,10.7c0.1,0,0.2,0,0.3,0    c4.6,15.3,17.2,26.3,32,26.3c14.8,0,27.4-10.9,32-26.1c0.1,0,0.2,0,0.2,0c3,0,5.4-4.5,5.4-10.3C302,49.6,300.1,45.5,297.6,44.7z     M282.1,77.7c-1.9,2.4-7.2,6.6-11.2,8.2c-2.1,0.6-4.3,0.9-6.5,0.9c-10,0-18.8-5.8-24.1-14.7c5.2,2.8,12.1,4.2,14.1,4.5    c0.4,0.3,1,0.5,1.7,0.5c1.2,0,2.2-0.6,2.2-1.4s-1-1.4-2.2-1.4c-0.7,0-1.3,0.2-1.7,0.5c-7.2-1-13.9-5.4-16.5-7.3    c-0.9-2-1.6-4.2-2.1-6.4c-0.1,0-0.2,0-0.3,0.1c-0.7,0-2.4,0-3.3-0.5c-1.1-0.7-2.7-2-2.7-6.6c0-2.6,0.8-4.8,1.7-5.8    c0.8-0.8,1.9-1.3,3.1-1.3c0.8,0,1.5,0.3,2.1,0.7c0.9,2.8,0.8,6.9,0.8,6.9c1.9-5.1,2-8.2,0.6-9.9c5.6,2.7,14.6,5.9,26.4,6.1    c10,0.2,17.9-2.1,23.4-4.4c0.9,2.6,1.6,5.8,1.6,9.5C289.2,67.8,284.2,75,282.1,77.7z M292.2,39.2c0.3,0.4,0.4,0.9,0.2,1.2    c-0.2,0.2-0.5,0.3-0.9,0.3c-0.2,0.3-0.4,0.6-0.7,0.6c-0.3,0-0.7-0.2-0.9-0.6c-0.5,0.1-0.9,0-1.1-0.3v-0.1    c-3.6-0.2-12.4-0.7-24.7-0.7c-13.1,0-21.9,0.4-24.9,0.6l0,0c-0.2,0.2-0.5,0.3-0.9,0.3c-0.2,0.3-0.4,0.6-0.7,0.6s-0.7-0.2-0.9-0.6    c-0.5,0.1-0.9,0-1.1-0.3c-0.2-0.3-0.1-0.7,0.2-1.1c-0.3-0.4-0.4-0.9-0.2-1.2c0.2-0.2,0.5-0.3,0.9-0.3c0.2-0.3,0.4-0.6,0.7-0.6    s0.7,0.2,0.9,0.6c0.4-0.1,0.7,0,0.9,0.1c2.7-0.2,12.7-0.7,25.2-0.7c11.5,0,20.9,0.7,24.6,1c0.2-0.2,0.5-0.3,0.8-0.3    c0.2-0.3,0.4-0.6,0.7-0.6c0.3,0,0.7,0.2,0.9,0.6c0.5-0.1,0.9,0,1.1,0.3C292.6,38.3,292.5,38.7,292.2,39.2z M274.4,27.5    c0,1.8-0.2,1.8-1.7,1.9h-18.3c-1.2,0-1.5-0.1-1.6-1.9c-1.4,0-1.7-0.4-1.7-1.9c-0.1-1.3,0.2-1.8,1.6-1.9c0-1.4,0.3-1.9,1.8-1.9    h18.3c1.5,0.1,1.7,0.3,1.7,1.9c1.4,0.1,1.5,0.4,1.6,1.9C275.9,27.3,275.6,27.5,274.4,27.5z"/>
		<path class="st0" d="M297.8,113.9c-0.4-1.3-5-17.2-6.2-21.3c-0.2-0.9-1.4-0.7-1.4-0.7l-2.6-0.1c-0.6-1.3-1.3-2.6-1.4-2.9    c-0.2-0.3-0.5-0.4-0.8-0.4c-0.4,0-0.8,0.3-0.9,0.3c-0.1,0.1-8.9,6.6-20.2,6.6c-6.9,0-13.3-2.4-19-7l-0.1-0.1    c-0.1,0-0.4-0.2-0.8-0.2c-0.4,0-0.7,0.2-0.9,0.4c-0.2,0.2-0.8,1.7-1.3,3.1c-0.9,0-2.1,0-3,0.3c-1-0.2-1.1,1.1-1.1,1.1    s-5.6,19.5-6.2,21.4c-0.7,2.2,1,2.6,1,2.6s1.8,1.3,2.6,2s1.2,1.4,0.8,2.3s-2.8,5.3-3.6,7.3c-0.8,1.9,0,2.7,0,2.7    s28.6,41.5,29.4,42.8s3,1.3,3.8,0.3c0.6-0.8,29.7-40.5,30.9-42.4c1.2-1.9,0.2-3.9,0.2-3.9l-2.8-6c0,0-1.2-1.6,0.6-3    c1-0.8,2.2-1.7,2.9-2.3C298,116.1,298.4,115.6,297.8,113.9z M284.8,91.6l0.9,2l-12.4,15l-6.7-10.8    C275.3,97.2,282.1,93.3,284.8,91.6z M245,91.3c4.7,3.5,9.9,5.6,15.3,6.3l-6.3,9c-3.5-5-7.7-10.8-9.8-13.5L245,91.3z M259.9,115    c0,0-1.9-2.7-4.4-6.2l5-7.2c0.3,0.7,0.7,1.4,1.2,2.1L259.9,115z M263.9,169.1c-1.1,0-2.1-0.9-2.1-2s0.9-2,2.1-2c1.1,0,2,0.9,2,2    C266,168.2,265.1,169.1,263.9,169.1z M263.9,155c-1.1,0-2.1-0.9-2.1-2s0.9-2,2.1-2c1.1,0,2,0.9,2,2C266,154.1,265.1,155,263.9,155    z M263.9,141c-1.1,0-2.1-0.9-2.1-2s0.9-2,2.1-2c1.1,0,2,0.9,2,2C266,140.1,265.1,141,263.9,141z M263.9,126.9    c-1.1,0-2.1-0.9-2.1-2s0.9-2,2.1-2c1.1,0,2,0.9,2,2C266,126,265.1,126.9,263.9,126.9z M265.3,103.7c0.4-0.6,0.8-1.3,1.1-1.9    l5.3,8.7l-3.8,4.6L265.3,103.7z"/>
	</g>
</g>
<g>
	<path d="M879.3,140.4c0,5.9-4.7,10.6-10.7,10.6c-6,0-10.8-4.7-10.8-10.6c0-5.8,4.8-10.5,10.8-10.5   C874.7,130,879.3,134.6,879.3,140.4z M860.5,140.4c0,4.7,3.4,8.4,8.2,8.4c4.6,0,8-3.7,8-8.3c0-4.7-3.4-8.4-8-8.4   C863.9,132.1,860.5,135.9,860.5,140.4z M866.9,145.9h-2.4v-10.5c1-0.2,2.3-0.3,4-0.3c2,0,2.9,0.3,3.6,0.8c0.6,0.4,1,1.3,1,2.3   c0,1.1-0.9,2-2.2,2.4v0.1c1,0.4,1.6,1.1,1.9,2.6c0.3,1.6,0.5,2.2,0.8,2.6h-2.6c-0.3-0.4-0.5-1.3-0.8-2.6c-0.2-1.1-0.8-1.7-2.2-1.7   h-1.1V145.9z M867,140h1.1c1.3,0,2.4-0.4,2.4-1.5c0-1-0.7-1.6-2.2-1.6c-0.6,0-1.1,0.1-1.3,0.1V140z"/>
</g>
</svg>